<mxfile host="app.diagrams.net" modified="2022-04-24T12:39:52.694Z" agent="5.0 (Windows NT 10.0; Win64; x64) AppleWebKit/537.36 (KHTML, like Gecko) Chrome/100.0.4896.127 Safari/537.36" etag="HUshAsB_UxZYVffjkYFO" version="17.4.6" type="github">
  <diagram id="aeyHVWQ12FvOT8MV-mG0" name="Page-1">
    <mxGraphModel dx="1038" dy="1716" grid="1" gridSize="10" guides="1" tooltips="1" connect="1" arrows="1" fold="1" page="1" pageScale="1" pageWidth="827" pageHeight="1169" math="0" shadow="0">
      <root>
        <mxCell id="0" />
        <mxCell id="1" parent="0" />
        <mxCell id="Kz8-1iGb_U1skN-DLZXl-1" value="" style="edgeStyle=orthogonalEdgeStyle;rounded=0;orthogonalLoop=1;jettySize=auto;html=1;fontStyle=0;strokeWidth=1;fontFamily=Helvetica;fontSize=15;spacing=2;" edge="1" parent="1" source="Kz8-1iGb_U1skN-DLZXl-2" target="Kz8-1iGb_U1skN-DLZXl-3">
          <mxGeometry relative="1" as="geometry" />
        </mxCell>
        <mxCell id="Kz8-1iGb_U1skN-DLZXl-2" value="Start" style="html=1;dashed=0;whitespace=wrap;shape=mxgraph.dfd.start;fontStyle=0;strokeWidth=1;fontFamily=Helvetica;fontSize=15;spacing=2;" vertex="1" parent="1">
          <mxGeometry x="30" y="-1035" width="80" height="30" as="geometry" />
        </mxCell>
        <UserObject label="MainActivity" id="Kz8-1iGb_U1skN-DLZXl-3">
          <mxCell style="whiteSpace=wrap;html=1;dashed=0;fontStyle=0;strokeWidth=1;fontFamily=Helvetica;fontSize=15;spacing=2;" vertex="1" parent="1">
            <mxGeometry x="136" y="-1035" width="90" height="30" as="geometry" />
          </mxCell>
        </UserObject>
        <mxCell id="Kz8-1iGb_U1skN-DLZXl-4" style="edgeStyle=orthogonalEdgeStyle;rounded=0;orthogonalLoop=1;jettySize=auto;html=1;exitX=0.5;exitY=1;exitDx=0;exitDy=0;entryX=0;entryY=0.5;entryDx=0;entryDy=0;entryPerimeter=0;fontStyle=0;strokeWidth=1;fontFamily=Helvetica;fontSize=15;spacing=2;" edge="1" parent="1" target="Kz8-1iGb_U1skN-DLZXl-9">
          <mxGeometry relative="1" as="geometry">
            <mxPoint x="349.94000000000005" y="-899.3600000000001" as="targetPoint" />
            <Array as="points">
              <mxPoint x="310" y="-1000" />
              <mxPoint x="310" y="-940" />
            </Array>
            <mxPoint x="308" y="-1000" as="sourcePoint" />
          </mxGeometry>
        </mxCell>
        <mxCell id="Kz8-1iGb_U1skN-DLZXl-5" style="edgeStyle=orthogonalEdgeStyle;rounded=0;orthogonalLoop=1;jettySize=auto;html=1;exitX=1;exitY=0.5;exitDx=0;exitDy=0;entryX=0;entryY=0.5;entryDx=0;entryDy=0;entryPerimeter=0;fontStyle=0;strokeWidth=1;fontFamily=Helvetica;fontSize=15;spacing=2;" edge="1" parent="1" source="Kz8-1iGb_U1skN-DLZXl-21" target="Kz8-1iGb_U1skN-DLZXl-7">
          <mxGeometry relative="1" as="geometry">
            <mxPoint x="356" y="-1020" as="sourcePoint" />
          </mxGeometry>
        </mxCell>
        <mxCell id="Kz8-1iGb_U1skN-DLZXl-6" value="" style="edgeStyle=orthogonalEdgeStyle;rounded=0;orthogonalLoop=1;jettySize=auto;html=1;fontStyle=0;strokeWidth=1;fontFamily=Helvetica;fontSize=15;spacing=2;entryX=0.5;entryY=0;entryDx=0;entryDy=0;" edge="1" parent="1" source="Kz8-1iGb_U1skN-DLZXl-7" target="Kz8-1iGb_U1skN-DLZXl-21">
          <mxGeometry relative="1" as="geometry">
            <mxPoint x="310" y="-1040" as="targetPoint" />
            <Array as="points">
              <mxPoint x="550" y="-1020" />
              <mxPoint x="550" y="-1080" />
              <mxPoint x="308" y="-1080" />
              <mxPoint x="308" y="-1040" />
            </Array>
          </mxGeometry>
        </mxCell>
        <UserObject label="&lt;span style=&quot;font-size: 15px&quot;&gt;ListViewPager&lt;/span&gt;" id="Kz8-1iGb_U1skN-DLZXl-7">
          <mxCell style="strokeWidth=1;html=1;shape=mxgraph.flowchart.display;whiteSpace=wrap;fontStyle=0;fontFamily=Helvetica;fontSize=15;spacing=2;" vertex="1" parent="1">
            <mxGeometry x="380" y="-1050" width="120" height="60" as="geometry" />
          </mxCell>
        </UserObject>
        <mxCell id="Kz8-1iGb_U1skN-DLZXl-8" value="" style="edgeStyle=orthogonalEdgeStyle;rounded=0;orthogonalLoop=1;jettySize=auto;html=1;fontStyle=0;strokeWidth=1;fontFamily=Helvetica;fontSize=15;spacing=2;" edge="1" parent="1" source="Kz8-1iGb_U1skN-DLZXl-9">
          <mxGeometry relative="1" as="geometry">
            <mxPoint x="550" y="-1020" as="targetPoint" />
            <Array as="points">
              <mxPoint x="550" y="-940" />
            </Array>
          </mxGeometry>
        </mxCell>
        <UserObject label="&lt;span style=&quot;font-size: 15px;&quot;&gt;List Fragment&lt;/span&gt;" id="Kz8-1iGb_U1skN-DLZXl-9">
          <mxCell style="strokeWidth=1;html=1;shape=mxgraph.flowchart.display;whiteSpace=wrap;fontStyle=0;fontFamily=Helvetica;fontSize=15;spacing=2;" vertex="1" parent="1">
            <mxGeometry x="380" y="-970" width="120" height="60" as="geometry" />
          </mxCell>
        </UserObject>
        <mxCell id="Kz8-1iGb_U1skN-DLZXl-12" style="edgeStyle=orthogonalEdgeStyle;rounded=0;orthogonalLoop=1;jettySize=auto;html=1;entryX=0;entryY=0.5;entryDx=0;entryDy=0;fontStyle=0;strokeWidth=1;exitX=1;exitY=0.5;exitDx=0;exitDy=0;fontFamily=Helvetica;fontSize=15;spacing=2;" edge="1" parent="1" source="Kz8-1iGb_U1skN-DLZXl-3" target="Kz8-1iGb_U1skN-DLZXl-21">
          <mxGeometry relative="1" as="geometry">
            <mxPoint x="180" y="-1020" as="sourcePoint" />
            <Array as="points" />
            <mxPoint x="260" y="-1020" as="targetPoint" />
          </mxGeometry>
        </mxCell>
        <mxCell id="Kz8-1iGb_U1skN-DLZXl-13" value="" style="edgeStyle=orthogonalEdgeStyle;rounded=0;orthogonalLoop=1;jettySize=auto;html=1;fontFamily=Helvetica;fontSize=15;strokeWidth=1;strokeColor=none;" edge="1" parent="1" target="Kz8-1iGb_U1skN-DLZXl-3">
          <mxGeometry relative="1" as="geometry">
            <mxPoint x="181" y="-1070" as="sourcePoint" />
          </mxGeometry>
        </mxCell>
        <UserObject label="&lt;span&gt;goToPage&lt;/span&gt;" id="Kz8-1iGb_U1skN-DLZXl-21">
          <mxCell style="shape=process;whiteSpace=wrap;html=1;backgroundOutline=1;labelBackgroundColor=none;labelBorderColor=none;fontFamily=Helvetica;fontSize=15;fontColor=#000000;strokeWidth=1;fillColor=#FFFFFF;gradientColor=none;size=0.04977206526131552;" vertex="1" parent="1">
            <mxGeometry x="266" y="-1040" width="84.8" height="40" as="geometry" />
          </mxCell>
        </UserObject>
      </root>
    </mxGraphModel>
  </diagram>
</mxfile>
